# xmcd
#
# Track frame offsets: 
#        150
#        15469
#        33381
#        50101
#        66270
#        84304
#        101317
#        120466
#        135008
#        153616
#        169443
#        184330
#        202403
#        220286
#        236181
#
# Disc length: 3356 seconds
#
# Revision: 0
# Processed by: cddbd v1.5.2PL0 Copyright (c) Steve Scherf et al.
# Submitted via: ExactAudioCopyFreeDBPlugin 1.0
#
DISCID=d60d1a0f
DTITLE=Various Artist - Best Country Hits Of Today Vol.3   Cd2
DYEAR=1900
DGENRE=Country
TTITLE0=Taylor Swift - Teardrops On My Guitar
TTITLE1=Keith Urban - I Told You So
TTITLE2=Reba McEntire and Kelly Clarkson - Because Of You
TTITLE3=Billy Currington - Good Directions
TTITLE4=Brad Paisley - Ticks
TTITLE5=Tracy Lawrence - Find Out Who Your Friends Are
TTITLE6=Alan Jackson - A Woman's Love
TTITLE7=Montgomery Gentry - Lucky Man
TTITLE8=George Strait - Wrapped
TTITLE9=Rodney Atkins - These Are My People
TTITLE10=Sugarland - Settlin'
TTITLE11=Rascal Flatts - Take Me There
TTITLE12=Emerson Drive - Moments
TTITLE13=Big and Rich - Lost In This Moment
TTITLE14=Kenny Chesney - Never Wanted Nothing More
EXTD=
EXTT0=
EXTT1=
EXTT2=
EXTT3=
EXTT4=
EXTT5=
EXTT6=
EXTT7=
EXTT8=
EXTT9=
EXTT10=
EXTT11=
EXTT12=
EXTT13=
EXTT14=
PLAYORDER=
